<svg width="19" height="19" viewBox="0 0 19 19" fill="none" xmlns="http://www.w3.org/2000/svg">
<g clip-path="url(#clip0_39_52)">
<path d="M14.4525 11.3168C17.1912 8.2391 18.3451 5.75474 18.7758 3.93309C19.0249 2.87956 19.0298 2.05656 18.9646 1.48111C18.9321 1.19403 18.8823 0.970322 18.8378 0.811998C18.8156 0.732878 18.7947 0.670181 18.7779 0.624146C18.7675 0.595441 18.7564 0.566822 18.7442 0.538832L18.7436 0.537516C18.6576 0.343041 18.5458 0.259485 18.3265 0.188138C18.2801 0.173047 18.2167 0.154187 18.1367 0.134277C17.9766 0.0944405 17.75 0.0504815 17.4599 0.0240653C16.8787 -0.0288662 16.0478 -0.0108092 14.9902 0.246816C13.1658 0.691269 10.6931 1.84179 7.67338 4.52651L4.82321 4.80921L4.816 4.80996C4.13165 4.88611 3.49355 5.19327 3.00667 5.6809L0.177643 8.51422C-0.00694449 8.69909 -0.052696 8.9815 0.0640469 9.21534C0.18079 9.44919 0.433833 9.58198 0.692253 9.54501L2.94397 9.22285C3.27634 9.17529 3.64728 9.2392 4.07773 9.37977C4.35366 9.46987 4.59712 9.56937 4.85512 9.6748C4.93344 9.7068 5.01387 9.73967 5.0962 9.77267C5.32988 10.7425 5.88146 11.6497 6.61028 12.3797C7.33895 13.1094 8.24463 13.6618 9.21272 13.8959C9.24565 13.9782 9.27813 14.0577 9.31007 14.1361C9.41571 14.3951 9.5154 14.6395 9.60552 14.9161C9.74597 15.3471 9.80981 15.7186 9.76231 16.0516L9.44064 18.3067C9.40372 18.5655 9.53633 18.8189 9.7698 18.9359C10.0033 19.0527 10.2853 19.007 10.4699 18.8221L13.2989 15.9887C13.7858 15.5012 14.0924 14.862 14.1685 14.1767L14.4525 11.3168ZM14.5829 6.92487C13.6355 7.87368 12.2915 8.06598 11.5809 7.35437C10.8704 6.64276 11.0624 5.29671 12.0098 4.3479C12.9572 3.39909 14.3012 3.2068 15.0117 3.91841C15.7221 4.63001 15.5302 5.97606 14.5829 6.92487Z" fill="black"/>
<path d="M6.18143 12.8092C6.8243 13.4531 7.55533 14.0085 8.32304 14.4148C6.99498 15.6103 2.47051 16.8235 2.32185 16.6746C2.17185 16.5244 3.19689 11.7005 4.5054 10.5226C4.91635 11.3432 5.49919 12.1259 6.18143 12.8092Z" fill="black"/>
<path d="M14.4525 11.3168C17.1912 8.2391 18.3451 5.75474 18.7758 3.93309C19.0249 2.87956 19.0298 2.05656 18.9646 1.48111C18.9321 1.19403 18.8823 0.970322 18.8378 0.811998C18.8156 0.732878 18.7947 0.670181 18.7779 0.624146C18.7675 0.595441 18.7564 0.566822 18.7442 0.538832L18.7436 0.537516C18.6576 0.343041 18.5458 0.259485 18.3265 0.188138C18.2801 0.173047 18.2167 0.154187 18.1367 0.134277C17.9766 0.0944405 17.75 0.0504815 17.4599 0.0240653C16.8787 -0.0288662 16.0478 -0.0108092 14.9902 0.246816C13.1658 0.691269 10.6931 1.84179 7.67338 4.52651L4.82321 4.80921L4.816 4.80996C4.13165 4.88611 3.49355 5.19327 3.00667 5.6809L0.177643 8.51422C-0.00694449 8.69909 -0.052696 8.9815 0.0640469 9.21534C0.18079 9.44919 0.433833 9.58198 0.692253 9.54501L2.94397 9.22285C3.27634 9.17529 3.64728 9.2392 4.07773 9.37977C4.35366 9.46987 4.59712 9.56937 4.85512 9.6748C4.93344 9.7068 5.01387 9.73967 5.0962 9.77267C5.32988 10.7425 5.88146 11.6497 6.61028 12.3797C7.33895 13.1094 8.24463 13.6618 9.21272 13.8959C9.24565 13.9782 9.27813 14.0577 9.31007 14.1361C9.41571 14.3951 9.5154 14.6395 9.60552 14.9161C9.74597 15.3471 9.80981 15.7186 9.76231 16.0516L9.44064 18.3067C9.40372 18.5655 9.53633 18.8189 9.7698 18.9359C10.0033 19.0527 10.2853 19.007 10.4699 18.8221L13.2989 15.9887C13.7858 15.5012 14.0924 14.862 14.1685 14.1767L14.4525 11.3168ZM14.5829 6.92487C13.6355 7.87368 12.2915 8.06598 11.5809 7.35437C10.8704 6.64276 11.0624 5.29671 12.0098 4.3479C12.9572 3.39909 14.3012 3.2068 15.0117 3.91841C15.7221 4.63001 15.5302 5.97606 14.5829 6.92487Z" fill="black"/>
<path d="M6.18143 12.8092C6.8243 13.4531 7.55533 14.0085 8.32304 14.4148C6.99498 15.6103 2.47051 16.8235 2.32185 16.6746C2.17185 16.5244 3.19689 11.7005 4.5054 10.5226C4.91635 11.3432 5.49919 12.1259 6.18143 12.8092Z" fill="black"/>
</g>
<defs>
<clipPath id="clip0_39_52">
<rect width="19" height="19" fill="white"/>
</clipPath>
</defs>
</svg>
