<svg width="20" height="20" viewBox="0 0 20 20" fill="none" xmlns="http://www.w3.org/2000/svg">
<g clip-path="url(#clip0_39_55)">
<path d="M15.5416 12.5871C17.667 13.2312 20 13.9382 20 10C20 4.47715 15.5229 0 10 0C4.47715 0 0 4.47715 0 10C0 15.5229 4.47715 20 10 20C12.4947 20 12.283 18.1195 12.0612 16.1493C11.9064 14.7733 11.7466 13.3536 12.5 12.5C13.0811 11.8416 14.2745 12.2032 15.5416 12.5871ZM10 6.25C8.96446 6.25 8.125 5.41054 8.125 4.375C8.125 3.33946 8.96446 2.5 10 2.5C11.0355 2.5 11.875 3.33946 11.875 4.375C11.875 5.41054 11.0355 6.25 10 6.25ZM15.625 10C14.5895 10 13.75 9.16054 13.75 8.125C13.75 7.08946 14.5895 6.25 15.625 6.25C16.6605 6.25 17.5 7.08946 17.5 8.125C17.5 9.16054 16.6605 10 15.625 10ZM6.25 8.125C6.25 9.16054 5.41054 10 4.375 10C3.33946 10 2.5 9.16054 2.5 8.125C2.5 7.08946 3.33946 6.25 4.375 6.25C5.41054 6.25 6.25 7.08946 6.25 8.125ZM6.875 16.25C5.83946 16.25 5 15.4105 5 14.375C5 13.3395 5.83946 12.5 6.875 12.5C7.91054 12.5 8.75 13.3395 8.75 14.375C8.75 15.4105 7.91054 16.25 6.875 16.25Z" fill="black"/>
<path d="M15.5416 12.5871C17.667 13.2312 20 13.9382 20 10C20 4.47715 15.5229 0 10 0C4.47715 0 0 4.47715 0 10C0 15.5229 4.47715 20 10 20C12.4947 20 12.283 18.1195 12.0612 16.1493C11.9064 14.7733 11.7466 13.3536 12.5 12.5C13.0811 11.8416 14.2745 12.2032 15.5416 12.5871ZM10 6.25C8.96446 6.25 8.125 5.41054 8.125 4.375C8.125 3.33946 8.96446 2.5 10 2.5C11.0355 2.5 11.875 3.33946 11.875 4.375C11.875 5.41054 11.0355 6.25 10 6.25ZM15.625 10C14.5895 10 13.75 9.16054 13.75 8.125C13.75 7.08946 14.5895 6.25 15.625 6.25C16.6605 6.25 17.5 7.08946 17.5 8.125C17.5 9.16054 16.6605 10 15.625 10ZM6.25 8.125C6.25 9.16054 5.41054 10 4.375 10C3.33946 10 2.5 9.16054 2.5 8.125C2.5 7.08946 3.33946 6.25 4.375 6.25C5.41054 6.25 6.25 7.08946 6.25 8.125ZM6.875 16.25C5.83946 16.25 5 15.4105 5 14.375C5 13.3395 5.83946 12.5 6.875 12.5C7.91054 12.5 8.75 13.3395 8.75 14.375C8.75 15.4105 7.91054 16.25 6.875 16.25Z" fill="black"/>
</g>
<defs>
<clipPath id="clip0_39_55">
<rect width="20" height="20" fill="white"/>
</clipPath>
</defs>
</svg>
