<svg width="20" height="20" viewBox="0 0 20 20" fill="none" xmlns="http://www.w3.org/2000/svg">
<path d="M9.95538 1.90918C6.23335 1.90918 2.99089 4.0388 2.05441 7.06543H1.36814C0.59214 7.06543 0.00365739 7.76509 0.136616 8.5296L0.454154 10.3555C0.610345 11.2536 1.38984 11.9092 2.30143 11.9092H2.62984C3.00404 12.5504 3.48973 13.1316 4.06178 13.6365L3.15049 16.7328C3.09486 16.9218 3.13159 17.1259 3.2496 17.2836C3.3676 17.4413 3.55306 17.5341 3.75005 17.5341H6.25005C6.51431 17.5341 6.75001 17.368 6.83876 17.1191L7.44107 15.4296C8.23439 15.6466 9.07958 15.7634 9.95538 15.7634C10.8385 15.7634 11.6904 15.6446 12.4895 15.4243L13.169 17.1394C13.2634 17.3776 13.4937 17.5341 13.75 17.5341H16.25C16.448 17.5341 16.6343 17.4404 16.7521 17.2814C16.87 17.1224 16.9056 16.9169 16.848 16.7274L15.8959 13.5946C17.2624 12.3683 18.125 10.6984 18.125 8.83627C18.125 8.65449 18.1169 8.4747 18.1011 8.29709C18.4268 8.1597 18.7348 7.96495 18.9813 7.7422C19.375 8.125 20 8.125 20 7.22174C20 7.5 19.375 7.5 19.4235 7.18839C19.4755 7.08669 19.5146 6.98004 19.5355 6.86983C19.5898 6.58376 19.5157 6.29567 19.2834 6.06327C19.0125 5.79233 18.6609 5.79929 18.4001 5.94156C18.1545 6.07552 17.9616 6.33889 17.9311 6.64379C17.9009 6.94714 18.0341 7.24419 18.3314 7.46089C18.2301 7.53115 18.121 7.59578 18.008 7.65225C17.3404 4.3224 13.9029 1.90918 9.95538 1.90918ZM18.9214 6.75337C18.9074 6.8275 18.868 6.91722 18.7985 7.01651C18.7787 7.00619 18.7604 6.99574 18.7434 6.98524C18.5618 6.87298 18.547 6.76622 18.5531 6.70598C18.5616 6.62024 18.6228 6.53205 18.6994 6.49023C18.7609 6.45671 18.7999 6.46367 18.8415 6.50522C18.9216 6.58533 18.9388 6.66184 18.9214 6.75337ZM7.67261 5.94194C7.34086 6.03728 6.99464 5.84562 6.89931 5.51387C6.80399 5.1821 6.99565 4.83589 7.3274 4.74057C8.15341 4.50322 9.03753 4.375 9.95531 4.375C10.9087 4.375 11.8258 4.51335 12.6791 4.7687C13.0099 4.86764 13.1978 5.21594 13.0988 5.54663C12.9999 5.87733 12.6515 6.06519 12.3209 5.96624C11.5842 5.74582 10.7878 5.625 9.95531 5.625C9.15392 5.625 8.38603 5.73695 7.67261 5.94194ZM6.25 7.8125C6.25 8.33027 5.83026 8.75 5.3125 8.75C4.79474 8.75 4.375 8.33027 4.375 7.8125C4.375 7.29474 4.79474 6.875 5.3125 6.875C5.83026 6.875 6.25 7.29474 6.25 7.8125Z" fill="black"/>
<path d="M9.95538 1.90918C6.23335 1.90918 2.99089 4.0388 2.05441 7.06543H1.36814C0.59214 7.06543 0.00365739 7.76509 0.136616 8.5296L0.454154 10.3555C0.610345 11.2536 1.38984 11.9092 2.30143 11.9092H2.62984C3.00404 12.5504 3.48973 13.1316 4.06178 13.6365L3.15049 16.7328C3.09486 16.9218 3.13159 17.1259 3.2496 17.2836C3.3676 17.4413 3.55306 17.5341 3.75005 17.5341H6.25005C6.51431 17.5341 6.75001 17.368 6.83876 17.1191L7.44107 15.4296C8.23439 15.6466 9.07958 15.7634 9.95538 15.7634C10.8385 15.7634 11.6904 15.6446 12.4895 15.4243L13.169 17.1394C13.2634 17.3776 13.4937 17.5341 13.75 17.5341H16.25C16.448 17.5341 16.6343 17.4404 16.7521 17.2814C16.87 17.1224 16.9056 16.9169 16.848 16.7274L15.8959 13.5946C17.2624 12.3683 18.125 10.6984 18.125 8.83627C18.125 8.65449 18.1169 8.4747 18.1011 8.29709C18.4268 8.1597 18.7348 7.96495 18.9813 7.7422C19.375 8.125 20 8.125 20 7.22174C20 7.5 19.375 7.5 19.4235 7.18839C19.4755 7.08669 19.5146 6.98004 19.5355 6.86983C19.5898 6.58376 19.5157 6.29567 19.2834 6.06327C19.0125 5.79233 18.6609 5.79929 18.4001 5.94156C18.1545 6.07552 17.9616 6.33889 17.9311 6.64379C17.9009 6.94714 18.0341 7.24419 18.3314 7.46089C18.2301 7.53115 18.121 7.59578 18.008 7.65225C17.3404 4.3224 13.9029 1.90918 9.95538 1.90918ZM18.9214 6.75337C18.9074 6.8275 18.868 6.91722 18.7985 7.01651C18.7787 7.00619 18.7604 6.99574 18.7434 6.98524C18.5618 6.87298 18.547 6.76622 18.5531 6.70598C18.5616 6.62024 18.6228 6.53205 18.6994 6.49023C18.7609 6.45671 18.7999 6.46367 18.8415 6.50522C18.9216 6.58533 18.9388 6.66184 18.9214 6.75337ZM7.67261 5.94194C7.34086 6.03728 6.99464 5.84562 6.89931 5.51387C6.80399 5.1821 6.99565 4.83589 7.3274 4.74057C8.15341 4.50322 9.03753 4.375 9.95531 4.375C10.9087 4.375 11.8258 4.51335 12.6791 4.7687C13.0099 4.86764 13.1978 5.21594 13.0988 5.54663C12.9999 5.87733 12.6515 6.06519 12.3209 5.96624C11.5842 5.74582 10.7878 5.625 9.95531 5.625C9.15392 5.625 8.38603 5.73695 7.67261 5.94194ZM6.25 7.8125C6.25 8.33027 5.83026 8.75 5.3125 8.75C4.79474 8.75 4.375 8.33027 4.375 7.8125C4.375 7.29474 4.79474 6.875 5.3125 6.875C5.83026 6.875 6.25 7.29474 6.25 7.8125Z" fill="black"/>
</svg>
