<svg width="20" height="20" viewBox="0 0 20 20" fill="none" xmlns="http://www.w3.org/2000/svg">
<path d="M1.25 13.75C1.25 13.0596 1.80965 12.5 2.5 12.5H5C5.69035 12.5 6.25 13.0596 6.25 13.75V17.5C6.25 18.1904 5.69035 18.75 5 18.75H2.5C1.80965 18.75 1.25 18.1904 1.25 17.5V13.75Z" fill="black"/>
<path d="M7.5 8.75C7.5 8.05965 8.05965 7.5 8.75 7.5H11.25C11.9404 7.5 12.5 8.05965 12.5 8.75V17.5C12.5 18.1904 11.9404 18.75 11.25 18.75H8.75C8.05965 18.75 7.5 18.1904 7.5 17.5V8.75Z" fill="black"/>
<path d="M13.75 2.5C13.75 1.80965 14.3096 1.25 15 1.25H17.5C18.1904 1.25 18.75 1.80965 18.75 2.5V17.5C18.75 18.1904 18.1904 18.75 17.5 18.75H15C14.3096 18.75 13.75 18.1904 13.75 17.5V2.5Z" fill="black"/>
<path d="M13.75 2.5C13.75 1.80965 14.3096 1.25 15 1.25H17.5C18.1904 1.25 18.75 1.80965 18.75 2.5V17.5C18.75 18.1904 18.1904 18.75 17.5 18.75H15C14.3096 18.75 13.75 18.1904 13.75 17.5V2.5Z" fill="black"/>
<path d="M7.5 8.75C7.5 8.05965 8.05965 7.5 8.75 7.5H11.25C11.9404 7.5 12.5 8.05965 12.5 8.75V17.5C12.5 18.1904 11.9404 18.75 11.25 18.75H8.75C8.05965 18.75 7.5 18.1904 7.5 17.5V8.75Z" fill="black"/>
<path d="M1.25 13.75C1.25 13.0596 1.80965 12.5 2.5 12.5H5C5.69035 12.5 6.25 13.0596 6.25 13.75V17.5C6.25 18.1904 5.69035 18.75 5 18.75H2.5C1.80965 18.75 1.25 18.1904 1.25 17.5V13.75Z" fill="black"/>
</svg>
