<svg width="50" height="50" viewBox="0 0 50 50" fill="none" xmlns="http://www.w3.org/2000/svg">
<circle cx="25" cy="25" r="24" fill="#B6FFBB" stroke="#1F935B" stroke-width="2"/>
<path d="M15.5701 12.5298C15.9263 12.1142 16.4463 11.875 16.9937 11.875H33.0063C33.5538 11.875 34.0737 12.1142 34.4299 12.5298L39.3229 18.2383C39.7598 18.748 40 19.3972 40 20.0686V20.5469C40 23.0063 38.0063 25 35.5469 25C34.1179 25 32.8461 24.3269 32.0312 23.2805C31.2164 24.3269 29.9446 25 28.5156 25C27.0866 25 25.8148 24.3269 25 23.2805C24.1852 24.3269 22.9134 25 21.4844 25C20.0554 25 18.7836 24.3269 17.9688 23.2805C17.1539 24.3269 15.8821 25 14.4531 25C11.9937 25 10 23.0063 10 20.5469V20.0686C10 19.3972 10.2402 18.748 10.6771 18.2383L15.5701 12.5298ZM18.9062 20.5469C18.9062 21.9707 20.0605 23.125 21.4844 23.125C22.9082 23.125 24.0625 21.9707 24.0625 20.5469C24.0625 20.0291 24.4822 19.6094 25 19.6094C25.5178 19.6094 25.9375 20.0291 25.9375 20.5469C25.9375 21.9707 27.0918 23.125 28.5156 23.125C29.9395 23.125 31.0938 21.9707 31.0938 20.5469C31.0938 20.0291 31.5136 19.6094 32.0312 19.6094C32.5489 19.6094 32.9688 20.0291 32.9688 20.5469C32.9688 21.9707 34.123 23.125 35.5469 23.125C36.9708 23.125 38.125 21.9707 38.125 20.5469V20.0686C38.125 19.8448 38.0449 19.6284 37.8992 19.4585L33.0063 13.75H16.9937L12.1007 19.4585C11.9551 19.6284 11.875 19.8448 11.875 20.0686V20.5469C11.875 21.9707 13.0293 23.125 14.4531 23.125C15.877 23.125 17.0312 21.9707 17.0312 20.5469C17.0312 20.0291 17.451 19.6094 17.9688 19.6094C18.4865 19.6094 18.9062 20.0291 18.9062 20.5469ZM12.8125 25.9375C13.3303 25.9375 13.75 26.3572 13.75 26.875V38.125H15.625V28.75C15.625 27.7145 16.4645 26.875 17.5 26.875H23.125C24.1605 26.875 25 27.7145 25 28.75V38.125H36.25V26.875C36.25 26.3572 36.6698 25.9375 37.1875 25.9375C37.7052 25.9375 38.125 26.3572 38.125 26.875V38.125H39.0625C39.5802 38.125 40 38.5448 40 39.0625C40 39.5802 39.5802 40 39.0625 40H10.9375C10.4197 40 10 39.5802 10 39.0625C10 38.5448 10.4197 38.125 10.9375 38.125H11.875V26.875C11.875 26.3572 12.2947 25.9375 12.8125 25.9375ZM17.5 38.125H23.125V28.75H17.5V38.125ZM26.875 28.75C26.875 27.7145 27.7145 26.875 28.75 26.875H32.5C33.5356 26.875 34.375 27.7145 34.375 28.75V34.375C34.375 35.4106 33.5356 36.25 32.5 36.25H28.75C27.7145 36.25 26.875 35.4106 26.875 34.375V28.75ZM32.5 28.75H28.75V34.375H32.5V28.75Z" fill="#1F935B"/>
</svg>
