<svg width="50" height="50" viewBox="0 0 50 50" fill="none" xmlns="http://www.w3.org/2000/svg">
<circle cx="25" cy="25" r="25" fill="url(#paint0_radial_64_5)"/>
<path d="M17.7193 23C17.2633 23 16.9073 22.908 16.6513 22.724C16.3979 22.54 16.2393 22.256 16.1753 21.872C16.1646 21.7547 16.1886 21.6667 16.2473 21.608C16.3059 21.5493 16.3913 21.52 16.5033 21.52C16.6153 21.52 16.6966 21.5467 16.7473 21.6C16.8006 21.6533 16.8366 21.736 16.8553 21.848C16.8953 22.032 16.9806 22.1587 17.1113 22.228C17.2446 22.2947 17.4473 22.328 17.7193 22.328H18.8713C19.2153 22.328 19.4486 22.2667 19.5712 22.144C19.6966 22.0187 19.7593 21.7867 19.7593 21.448C19.7593 21.104 19.6953 20.8693 19.5673 20.744C19.4393 20.616 19.2073 20.552 18.8713 20.552H17.8793C17.3753 20.552 17.0006 20.4293 16.7553 20.184C16.5126 19.936 16.3913 19.56 16.3913 19.056C16.3913 18.5547 16.5113 18.1827 16.7513 17.94C16.9939 17.6973 17.3673 17.576 17.8713 17.576H18.8233C19.2473 17.576 19.5793 17.6627 19.8193 17.836C20.0619 18.0093 20.2153 18.2747 20.2793 18.632C20.2953 18.7467 20.2739 18.8347 20.2153 18.896C20.1566 18.9547 20.0686 18.984 19.9513 18.984C19.8446 18.984 19.7646 18.956 19.7113 18.9C19.6579 18.844 19.6233 18.7627 19.6073 18.656C19.5646 18.4987 19.4833 18.392 19.3633 18.336C19.2433 18.2773 19.0633 18.248 18.8233 18.248H17.8713C17.5513 18.248 17.3366 18.3053 17.2273 18.42C17.1179 18.532 17.0633 18.744 17.0633 19.056C17.0633 19.3707 17.1193 19.5867 17.2313 19.704C17.3433 19.8213 17.5593 19.88 17.8793 19.88H18.8713C19.3966 19.88 19.7873 20.008 20.0433 20.264C20.3019 20.52 20.4313 20.9147 20.4313 21.448C20.4313 21.9787 20.3033 22.3707 20.0473 22.624C19.7913 22.8747 19.3993 23 18.8713 23H17.7193ZM21.7143 19.208C21.6316 19.208 21.553 19.1773 21.4783 19.116C21.4063 19.052 21.3943 18.96 21.4423 18.84L21.8583 17.744L22.3863 17.96L21.9703 19.048C21.9543 19.096 21.921 19.1347 21.8703 19.164C21.8223 19.1933 21.7703 19.208 21.7143 19.208ZM21.9063 18.152C21.693 18.152 21.5863 18.0453 21.5863 17.832V17.632C21.5863 17.424 21.693 17.32 21.9063 17.32H22.0983C22.301 17.32 22.4023 17.424 22.4023 17.632V17.832C22.4023 18.0453 22.301 18.152 22.0983 18.152H21.9063ZM25.6621 23C25.0515 23 24.5995 22.8547 24.3061 22.564C24.0155 22.2707 23.8701 21.8187 23.8701 21.208V17.912C23.8701 17.8 23.8981 17.716 23.9541 17.66C24.0101 17.604 24.0941 17.576 24.2061 17.576C24.3181 17.576 24.4021 17.604 24.4581 17.66C24.5141 17.716 24.5421 17.8 24.5421 17.912V21.208C24.5421 21.4933 24.5755 21.7173 24.6421 21.88C24.7115 22.0427 24.8275 22.1587 24.9901 22.228C25.1528 22.2947 25.3768 22.328 25.6621 22.328H26.6221C26.9075 22.328 27.1315 22.2947 27.2941 22.228C27.4568 22.1587 27.5715 22.0427 27.6381 21.88C27.7075 21.7173 27.7421 21.4933 27.7421 21.208V17.912C27.7421 17.8 27.7701 17.716 27.8261 17.66C27.8821 17.604 27.9661 17.576 28.0781 17.576C28.1901 17.576 28.2741 17.604 28.3301 17.66C28.3861 17.716 28.4141 17.8 28.4141 17.912V21.208C28.4141 21.8187 28.2688 22.2707 27.9781 22.564C27.6875 22.8547 27.2355 23 26.6221 23H25.6621ZM30.3711 24.6C30.1471 24.6 30.0351 24.488 30.0351 24.264V19.28C30.0351 19.056 30.1471 18.944 30.3711 18.944C30.5951 18.944 30.7071 19.056 30.7071 19.28V19.38C30.8511 19.236 31.0285 19.128 31.2391 19.056C31.4525 18.9813 31.6911 18.944 31.9551 18.944H32.2591C32.7925 18.944 33.1871 19.072 33.4431 19.328C33.6991 19.584 33.8271 19.9787 33.8271 20.512V21.432C33.8271 21.9627 33.6991 22.3573 33.4431 22.616C33.1871 22.872 32.7925 23 32.2591 23H30.7071V24.264C30.7071 24.488 30.5951 24.6 30.3711 24.6ZM30.7071 22.328H32.2591C32.6085 22.328 32.8445 22.2653 32.9671 22.14C33.0925 22.0147 33.1551 21.7787 33.1551 21.432V20.512C33.1551 20.1627 33.0925 19.9267 32.9671 19.804C32.8445 19.6787 32.6085 19.616 32.2591 19.616H31.9551C31.6218 19.616 31.3338 19.656 31.0911 19.736C30.8485 19.816 30.7205 19.9427 30.7071 20.116V22.328ZM16.7864 32C16.2878 32 15.9051 31.8973 15.6384 31.692C15.3744 31.484 15.2184 31.16 15.1704 30.72C15.1598 30.608 15.1838 30.5213 15.2424 30.46C15.3011 30.3987 15.3864 30.368 15.4984 30.368C15.7038 30.368 15.8184 30.48 15.8424 30.704C15.8744 30.9467 15.9611 31.112 16.1024 31.2C16.2438 31.2853 16.4718 31.328 16.7864 31.328H17.4504C17.6984 31.328 17.8918 31.3 18.0304 31.244C18.1718 31.188 18.2704 31.0907 18.3264 30.952C18.3824 30.8133 18.4104 30.6187 18.4104 30.368V26.912C18.4104 26.688 18.5224 26.576 18.7464 26.576C18.9704 26.576 19.0824 26.688 19.0824 26.912V30.368C19.0824 30.9307 18.9504 31.344 18.6864 31.608C18.4224 31.8693 18.0104 32 17.4504 32H16.7864ZM22.083 32C21.5523 32 21.1577 31.872 20.899 31.616C20.643 31.36 20.515 30.968 20.515 30.44V29.512C20.515 28.976 20.643 28.5813 20.899 28.328C21.1577 28.072 21.5523 27.944 22.083 27.944H22.739C23.2723 27.944 23.667 28.072 23.923 28.328C24.179 28.584 24.307 28.9787 24.307 29.512V30.432C24.307 30.9627 24.179 31.3573 23.923 31.616C23.667 31.872 23.2723 32 22.739 32H22.083ZM21.187 30.44C21.187 30.784 21.2497 31.0187 21.375 31.144C21.5003 31.2667 21.7363 31.328 22.083 31.328H22.739C23.0883 31.328 23.3243 31.2653 23.447 31.14C23.5723 31.0147 23.635 30.7787 23.635 30.432V29.512C23.635 29.1627 23.5723 28.9267 23.447 28.804C23.3243 28.6787 23.0883 28.616 22.739 28.616H22.083C21.851 28.616 21.6697 28.6427 21.539 28.696C21.411 28.7467 21.3203 28.8373 21.267 28.968C21.2137 29.096 21.187 29.2773 21.187 29.512V30.44ZM26.1133 32C25.8893 32 25.7773 31.888 25.7773 31.664V26.704C25.7773 26.48 25.8893 26.368 26.1133 26.368C26.3373 26.368 26.4493 26.48 26.4493 26.704V28.372C26.588 28.2307 26.7613 28.124 26.9693 28.052C27.1773 27.98 27.42 27.944 27.6973 27.944H28.0013C28.5346 27.944 28.9293 28.072 29.1853 28.328C29.4413 28.584 29.5693 28.9787 29.5693 29.512V30.432C29.5693 30.9627 29.4413 31.3573 29.1853 31.616C28.9293 31.872 28.5346 32 28.0013 32H27.6973C27.42 32 27.1773 31.964 26.9693 31.892C26.7613 31.82 26.588 31.7147 26.4493 31.576V31.664C26.4493 31.888 26.3373 32 26.1133 32ZM27.6973 31.328H28.0013C28.3506 31.328 28.5866 31.2653 28.7093 31.14C28.8346 31.012 28.8973 30.776 28.8973 30.432V29.512C28.8973 29.1627 28.8333 28.9267 28.7053 28.804C28.58 28.6787 28.3453 28.616 28.0013 28.616H27.6973C27.3453 28.616 27.0493 28.6613 26.8093 28.752C26.5693 28.84 26.4493 28.9787 26.4493 29.168V30.776C26.4493 30.9627 26.5693 31.1013 26.8093 31.192C27.0493 31.2827 27.3453 31.328 27.6973 31.328ZM31.9949 32C31.6563 32 31.3883 31.9307 31.1909 31.792C30.9936 31.6507 30.8669 31.44 30.8109 31.16C30.7923 31.048 30.8136 30.96 30.8749 30.896C30.9389 30.832 31.0269 30.8 31.1389 30.8C31.2483 30.8 31.3269 30.828 31.3749 30.884C31.4256 30.9373 31.4669 31.0187 31.4989 31.128C31.5309 31.208 31.5843 31.2613 31.6589 31.288C31.7363 31.3147 31.8483 31.328 31.9949 31.328H33.3069C33.5149 31.328 33.6549 31.2947 33.7269 31.228C33.7989 31.1587 33.8349 31.016 33.8349 30.8C33.8349 30.5867 33.7989 30.4453 33.7269 30.376C33.6549 30.3067 33.5149 30.272 33.3069 30.272H32.0189C31.6349 30.272 31.3456 30.1747 31.1509 29.98C30.9563 29.7853 30.8589 29.496 30.8589 29.112C30.8589 28.72 30.9536 28.428 31.1429 28.236C31.3349 28.0413 31.6269 27.944 32.0189 27.944H33.2669C33.8936 27.944 34.2643 28.208 34.3789 28.736C34.4003 28.848 34.3789 28.9347 34.3149 28.996C34.2509 29.0573 34.1629 29.088 34.0509 29.088C33.9469 29.088 33.8696 29.0613 33.8189 29.008C33.7683 28.952 33.7283 28.8747 33.6989 28.776C33.6669 28.712 33.6176 28.6693 33.5509 28.648C33.4869 28.6267 33.3923 28.616 33.2669 28.616H32.0189C31.8163 28.616 31.6843 28.6467 31.6229 28.708C31.5616 28.7693 31.5309 28.904 31.5309 29.112C31.5309 29.304 31.5629 29.4333 31.6269 29.5C31.6936 29.5667 31.8243 29.6 32.0189 29.6H33.3069C33.7069 29.6 34.0069 29.7 34.2069 29.9C34.4069 30.1 34.5069 30.4 34.5069 30.8C34.5069 31.2027 34.4069 31.504 34.2069 31.704C34.0069 31.9013 33.7069 32 33.3069 32H31.9949Z" fill="black"/>
<defs>
<radialGradient id="paint0_radial_64_5" cx="0" cy="0" r="1" gradientUnits="userSpaceOnUse" gradientTransform="translate(25 25) rotate(90) scale(25)">
<stop offset="0.59" stop-color="#B6FFBB"/>
<stop offset="0.81" stop-color="#1F935B"/>
<stop offset="1"/>
</radialGradient>
</defs>
</svg>
